<?xml version="1.0" encoding="iso-8859-1"?>
<svg fill="currentColor" version="1.1" id="Layer_1" xmlns="http://www.w3.org/2000/svg"
	xmlns:xlink="http://www.w3.org/1999/xlink"
	viewBox="0 0 511.999 511.999" xml:space="preserve">
<g>
	<g>
		<path d="M466.904,68.854c-60.129-60.127-157.962-60.127-218.091,0L35.373,282.294c-47.166,47.167-47.161,123.497,0,170.659
			c47.053,47.051,123.609,47.049,170.659,0l213.441-213.442c33.973-33.973,33.973-89.254,0-123.228
			c-33.974-33.974-89.254-33.974-123.228,0L114.204,298.327c-7.833,7.833-7.833,20.532,0,28.365c7.833,7.833,20.531,7.833,28.365,0
			L324.61,144.65c18.333-18.336,48.164-18.334,66.497,0c18.333,18.334,18.333,48.165,0,66.498l-213.44,213.441
			c-31.412,31.41-82.519,31.41-113.93,0c-31.487-31.487-31.484-82.445,0-113.929L277.179,97.219
			c44.595-44.596,116.77-44.59,161.36,0c44.596,44.595,44.59,116.77,0,161.36l-94.863,94.863c-7.833,7.833-7.833,20.532,0,28.365
			c7.834,7.833,20.531,7.833,28.365,0l94.863-94.863C527.031,226.817,527.031,128.981,466.904,68.854z"/>
	</g>
</g>
</svg>